<svg height="512" viewBox="0 0 512 512" width="512" xmlns="http://www.w3.org/2000/svg"><g id="Farmer_Community" data-name="Farmer Community"><g id="Filled"><circle cx="256" cy="256" fill="#9ccc65" r="168"/><path d="m391.8 157.093c-4.772 117.284-101.345 210.907-219.8 210.907a220.91 220.91 0 0 1 -45.239-4.666 168 168 0 0 0 265.039-206.241z" fill="#83bd46"/><path d="m272 336v-32a8 8 0 0 1 8-8h8a32 32 0 0 0 32-32h.452a16 16 0 0 0 15.982-16.773c-.406-8.606-7.819-15.227-16.434-15.227v-32h-128v32a16 16 0 0 0 0 32 32 32 0 0 0 32 32h8a8 8 0 0 1 8 8v32z" fill="#f7e0ba"/><path d="m288 136c-8 0-17.864 16-32 16s-24-16-32-16c-17.673 0-32 64-32 64h128s-16-64-32-64z" fill="#fcdb5a"/><path d="m225.633 200h94.367s-13.126-52.5-27.489-62.4a173.809 173.809 0 0 1 -66.878 62.4z" fill="#f2c841"/><path d="m280 296h8a32 32 0 0 0 32-32h.452a16 16 0 0 0 15.982-16.773c-.406-8.606-7.819-15.227-16.434-15.227v-32h-7.416a143.31 143.31 0 0 1 -90.209 95.959q.807.041 1.625.041h8a8 8 0 0 1 8 8v32h32v-32a8 8 0 0 1 8-8z" fill="#f5d59f"/><circle cx="220" cy="156" fill="#ffeaa9" r="12"/><circle cx="248" cy="168" fill="#ffeaa9" r="8"/><path d="m312 320h-40a16 16 0 0 1 -32 0h-40a32 32 0 0 0 -32 32v47.125a168.1 168.1 0 0 0 176 0v-47.125a32 32 0 0 0 -32-32z" fill="#ea7432"/><g fill="#9ccc65"><circle cx="56" cy="56" r="48"/><circle cx="456" cy="56" r="48"/><circle cx="56" cy="456" r="48"/><circle cx="456" cy="456" r="48"/></g><circle cx="196" cy="340" fill="#fa9664" r="12"/><circle cx="224" cy="352" fill="#fa9664" r="8"/><path d="m323.651 322.2a176.183 176.183 0 0 1 -126.125 91.323 168.208 168.208 0 0 0 146.474-14.398v-47.125a32.009 32.009 0 0 0 -20.349-29.8z" fill="#e2601e"/><path d="m75.747 12.253a47.995 47.995 0 0 1 -63.494 63.494 48 48 0 1 0 63.494-63.494z" fill="#83bd46"/><path d="m475.747 12.253a47.995 47.995 0 0 1 -63.494 63.494 48 48 0 1 0 63.494-63.494z" fill="#83bd46"/><path d="m75.747 412.253a47.995 47.995 0 0 1 -63.494 63.494 48 48 0 1 0 63.494-63.494z" fill="#83bd46"/><path d="m475.747 412.253a47.995 47.995 0 0 1 -63.494 63.494 48 48 0 1 0 63.494-63.494z" fill="#83bd46"/></g><g id="Outline"><path d="m417.854 415.053-38.854-33.303a175.681 175.681 0 0 0 0-251.5l38.852-33.3c35.554 33.138 94.148 8.033 94.148-40.95a56.063 56.063 0 0 0 -56-56c-43.412 0-70.161 47.449-48.189 84.482l-40.848 35.018a175.329 175.329 0 0 0 -128.4-38.637 8 8 0 0 0 1.569 15.924c94.274-9.308 175.868 64.887 175.868 159.213a159.855 159.855 0 0 1 -64 127.919v-31.919a40.045 40.045 0 0 0 -40-40h-32v-8h8a40.068 40.068 0 0 0 39.393-33.034c22.227-6.746 22.922-38.123.607-45.659v-17.307h40a8 8 0 0 0 0-16h-41.858c-29.595-106.311-51.421-48-70.142-48-10.87 0-19.888-16-32-16-20.743 0-33.091 43.7-38.286 64h-41.714a8 8 0 0 0 0 16h40v17.371c-21.58 7.651-21.166 38.374.583 45.456a40.067 40.067 0 0 0 39.417 33.173h8v8h-32a40.045 40.045 0 0 0 -40 40v31.919c-88.816-66.822-84.61-201.57 9.109-262.285a8 8 0 1 0 -8.7-13.428 178.489 178.489 0 0 0 -15.434 11.237l-40.786-34.961c21.975-37.039-4.783-84.482-48.189-84.482a56.063 56.063 0 0 0 -56 56c0 48.988 58.6 74.086 94.146 40.947l38.769 33.231c-70.332 68.631-70.803 182.222.085 251.572l-38.852 33.3c-35.548-33.138-94.148-8.035-94.148 40.95a56.063 56.063 0 0 0 56 56c43.412 0 70.161-47.449 48.189-84.482l40.848-35.013a175.568 175.568 0 0 0 221.926 0l40.848 35.013c-21.975 37.039 4.783 84.482 48.189 84.482a56.063 56.063 0 0 0 56-56c0-48.988-58.6-74.086-94.146-40.947zm38.146-399.053a40 40 0 1 1 -40 40 40.045 40.045 0 0 1 40-40zm-400 80a40 40 0 1 1 40-40 40.045 40.045 0 0 1 -40 40zm0 400a40 40 0 1 1 40-40 40.045 40.045 0 0 1 -40 40zm167.929-351.969c5.043 1.677 16.28 15.969 32.071 15.969 15.443 0 26.383-13.594 31.856-15.888 8.575 5.559 18.768 38.059 21.642 47.888h-107.233c2.558-9.468 12.726-43.94 21.664-47.969zm.071 143.969a24.028 24.028 0 0 1 -24-24v-8h-8a8 8 0 0 1 0-16h8v-32h112v32h8a8.326 8.326 0 0 1 8.442 7.6 7.994 7.994 0 0 1 -7.99 8.4h-8.452v8a24.028 24.028 0 0 1 -24 24h-8a16.019 16.019 0 0 0 -16 16v16a8 8 0 0 1 -16 0v-16a16.019 16.019 0 0 0 -16-16zm112 106.522a159.488 159.488 0 0 1 -16 8.1v-26.622a8 8 0 0 0 -16 0c.017 34.408-.031 31.825.032 32.63a160.143 160.143 0 0 1 -96.064 0c.063-.807.016 1.569.032-32.63a8 8 0 0 0 -16 0v26.626a159.488 159.488 0 0 1 -16-8.1v-42.526a24.028 24.028 0 0 1 24-24h33.371c7.542 21.272 37.709 21.291 45.258 0h33.371a24.028 24.028 0 0 1 24 24zm120 101.478a40 40 0 1 1 40-40 40.045 40.045 0 0 1 -40 40z"/><circle cx="56" cy="56" r="8"/><circle cx="456" cy="56" r="8"/><circle cx="56" cy="456" r="8"/><circle cx="456" cy="456" r="8"/><circle cx="288" cy="240" r="8"/><circle cx="224" cy="240" r="8"/><circle cx="200" cy="96" r="8"/></g></g></svg>